{
  "asset": {
    "version": "2.0",
    "generator": "THREE.GLTFExporter"
  },
  "scenes": [
    {
      "name": "AuxScene",
      "nodes": [
        4
      ]
    }
  ],
  "scene": 0,
  "nodes": [
    {
      "name": "object_0",
      "mesh": 0
    },
    {
      "name": "object_1",
      "mesh": 1
    },
    {
      "name": "object_2",
      "mesh": 2
    },
    {
      "name": "object_3",
      "mesh": 3
    },
    {
      "children": [
        0,
        1,
        2,
        3
      ]
    }
  ],
  "bufferViews": [
    {
      "buffer": 0,
      "byteOffset": 0,
      "byteLength": 62928,
      "target": 34962,
      "byteStride": 12
    },
    {
      "buffer": 0,
      "byteOffset": 62928,
      "byteLength": 62928,
      "target": 34962,
      "byteStride": 12
    },
    {
      "buffer": 0,
      "byteOffset": 125856,
      "byteLength": 41952,
      "target": 34962,
      "byteStride": 8
    },
    {
      "buffer": 0,
      "byteOffset": 167808,
      "byteLength": 55296,
      "target": 34962,
      "byteStride": 12
    },
    {
      "buffer": 0,
      "byteOffset": 223104,
      "byteLength": 55296,
      "target": 34962,
      "byteStride": 12
    },
    {
      "buffer": 0,
      "byteOffset": 278400,
      "byteLength": 36864,
      "target": 34962,
      "byteStride": 8
    },
    {
      "buffer": 0,
      "byteOffset": 315264,
      "byteLength": 55296,
      "target": 34962,
      "byteStride": 12
    },
    {
      "buffer": 0,
      "byteOffset": 370560,
      "byteLength": 55296,
      "target": 34962,
      "byteStride": 12
    },
    {
      "buffer": 0,
      "byteOffset": 425856,
      "byteLength": 36864,
      "target": 34962,
      "byteStride": 8
    },
    {
      "buffer": 0,
      "byteOffset": 462720,
      "byteLength": 443304,
      "target": 34962,
      "byteStride": 12
    },
    {
      "buffer": 0,
      "byteOffset": 906024,
      "byteLength": 443304,
      "target": 34962,
      "byteStride": 12
    },
    {
      "buffer": 0,
      "byteOffset": 1349328,
      "byteLength": 295536,
      "target": 34962,
      "byteStride": 8
    }
  ],
  "buffers": [
    {
      "byteLength": 1644864,
      "uri": "data:application/octet-stream;base64,"
    }
  ],
  "accessors": [
    {
      "bufferView": 0,
      "componentType": 5126,
      "count": 5244,
      "max": [
        0.08251884579658508,
        -0.3773351013660431,
        0.7791869640350342
      ],
      "min": [
        -0.13937799632549286,
        -0.40664198994636536,
        0.7041810154914856
      ],
      "type": "VEC3"
    },
    {
      "bufferView": 1,
      "componentType": 5126,
      "count": 5244,
      "max": [
        0.9980040192604065,
        0.9800410270690918,
        0.9742990136146545
      ],
      "min": [
        -0.9979109764099121,
        -0.9781820178031921,
        -0.9742990136146545
      ],
      "type": "VEC3"
    },
    {
      "bufferView": 2,
      "componentType": 5126,
      "count": 5244,
      "max": [
        null,
        null
      ],
      "min": [
        null,
        null
      ],
      "type": "VEC2"
    },
    {
      "bufferView": 3,
      "componentType": 5126,
      "count": 4608,
      "max": [
        0.4555089473724365,
        -0.2286289930343628,
        0.8386034369468689
      ],
      "min": [
        -0.5362380146980286,
        -0.37493300437927246,
        0.5970820188522339
      ],
      "type": "VEC3"
    },
    {
      "bufferView": 4,
      "componentType": 5126,
      "count": 4608,
      "max": [
        0.9933559894561768,
        0.9939389824867249,
        0.9998469948768616
      ],
      "min": [
        -0.9820680022239685,
        -0.9990540146827698,
        -0.9940400123596191
      ],
      "type": "VEC3"
    },
    {
      "bufferView": 5,
      "componentType": 5126,
      "count": 4608,
      "max": [
        null,
        null
      ],
      "min": [
        null,
        null
      ],
      "type": "VEC2"
    },
    {
      "bufferView": 6,
      "componentType": 5126,
      "count": 4608,
      "max": [
        0.3703804910182953,
        -0.31600692868232727,
        0.9981480240821838
      ],
      "min": [
        -0.3764039874076843,
        -0.3918280005455017,
        0.7636989951133728
      ],
      "type": "VEC3"
    },
    {
      "bufferView": 7,
      "componentType": 5126,
      "count": 4608,
      "max": [
        0.9983149766921997,
        0.9994350075721741,
        0.9935539960861206
      ],
      "min": [
        -0.9981729984283447,
        -0.9991390109062195,
        -0.9975569844245911
      ],
      "type": "VEC3"
    },
    {
      "bufferView": 8,
      "componentType": 5126,
      "count": 4608,
      "max": [
        null,
        null
      ],
      "min": [
        null,
        null
      ],
      "type": "VEC2"
    },
    {
      "bufferView": 9,
      "componentType": 5126,
      "count": 36942,
      "max": [
        1.4076727628707886,
        0.5608170032501221,
        1.2936511039733887
      ],
      "min": [
        -1.3062900304794312,
        -0.40323400497436523,
        -0.0063599999994039536
      ],
      "type": "VEC3"
    },
    {
      "bufferView": 10,
      "componentType": 5126,
      "count": 36942,
      "max": [
        0.9999979734420776,
        0.9999690055847168,
        1
      ],
      "min": [
        -0.9997689723968506,
        -0.9998649954795837,
        -0.9999139904975891
      ],
      "type": "VEC3"
    },
    {
      "bufferView": 11,
      "componentType": 5126,
      "count": 36942,
      "max": [
        null,
        null
      ],
      "min": [
        null,
        null
      ],
      "type": "VEC2"
    }
  ],
  "materials": [
    {
      "pbrMetallicRoughness": {
        "metallicFactor": 0.5,
        "roughnessFactor": 0.5
      },
      "name": "object_0"
    },
    {
      "pbrMetallicRoughness": {
        "metallicFactor": 0.5,
        "roughnessFactor": 0.5
      },
      "name": "object_1"
    },
    {
      "pbrMetallicRoughness": {
        "metallicFactor": 0.5,
        "roughnessFactor": 0.5
      },
      "name": "object_2"
    },
    {
      "pbrMetallicRoughness": {
        "metallicFactor": 0.5,
        "roughnessFactor": 0.5
      },
      "name": "object_3"
    }
  ],
  "meshes": [
    {
      "primitives": [
        {
          "mode": 4,
          "attributes": {
            "POSITION": 0,
            "NORMAL": 1,
            "TEXCOORD_0": 2
          },
          "material": 0
        }
      ]
    },
    {
      "primitives": [
        {
          "mode": 4,
          "attributes": {
            "POSITION": 3,
            "NORMAL": 4,
            "TEXCOORD_0": 5
          },
          "material": 1
        }
      ]
    },
    {
      "primitives": [
        {
          "mode": 4,
          "attributes": {
            "POSITION": 6,
            "NORMAL": 7,
            "TEXCOORD_0": 8
          },
          "material": 2
        }
      ]
    },
    {
      "primitives": [
        {
          "mode": 4,
          "attributes": {
            "POSITION": 9,
            "NORMAL": 10,
            "TEXCOORD_0": 11
          },
          "material": 3
        }
      ]
    }
  ]
}